<?xml version="1.0" standalone="no"?>
<!DOCTYPE svg PUBLIC "-//W3C//DTD SVG 20010904//EN"
 "http://www.w3.org/TR/2001/REC-SVG-20010904/DTD/svg10.dtd">
<svg version="1.0" xmlns="http://www.w3.org/2000/svg"
 width="50.000000pt" height="50.000000pt" viewBox="0 0 50.000000 50.000000"
 preserveAspectRatio="xMidYMid meet">

<g transform="translate(0.000000,50.000000) scale(0.100000,-0.100000)"
fill="#000000" stroke="none">
<path d="M262 465 c-13 -16 -25 -56 -32 -109 l-13 -84 -37 -10 c-35 -9 -39 -7
-49 14 -13 28 -54 41 -86 26 -49 -22 -41 -105 10 -118 15 -4 48 0 77 10 28 9
57 16 64 16 18 0 18 -29 -1 -73 -20 -49 -19 -83 5 -107 40 -40 110 -11 110 45
0 24 -25 58 -49 66 -8 3 -9 12 -2 34 9 25 51 280 51 306 0 18 -29 8 -48 -16z
m-158 -207 c8 -14 7 -21 -6 -34 -30 -30 -75 9 -48 42 16 18 39 15 54 -8z m146
-8 c0 -5 -4 -10 -10 -10 -5 0 -10 5 -10 10 0 6 5 10 10 10 6 0 10 -4 10 -10z
m24 -162 c8 -14 7 -21 -6 -34 -30 -30 -75 9 -48 42 16 18 39 15 54 -8z"/>
<path d="M378 296 c-75 -12 -73 -11 -82 -50 l-7 -28 58 6 c79 10 121 24 133
46 23 43 14 46 -102 26z"/>
</g>
</svg>
